<?xml version="1.0" encoding="UTF-8"?>
<svg id="Capa_1" data-name="Capa 1" xmlns="http://www.w3.org/2000/svg" viewBox="0 0 512 512">
  <defs>
    <style>
      .cls-1 {
        fill: #f9e8d7;
      }

      .cls-2 {
        fill: #711116;
      }
    </style>
  </defs>
  <rect class="cls-2" width="512" height="512"/>
  <g>
    <path class="cls-1" d="M196.75,295.95c-52.21,0-34.03,32.92-50.56,32.92-4.96,0-8.95-2.76-8.95-8.27,0-7.16,10.33-8.95,19.84-14.74,11.71-7.16,12.67-47.8,18.05-101.94,4-39.81,11.85-88.72-2.62-88.72v-.55h81.28v.55c-8.27,0-14.19,21.9-21.35,90.1-6.75,64.61-3.58,89.68-1.93,96.85,5.1,21.63,80.59,48.35,101.8,52.49,7.99,1.65,22.59,1.93,26.04-2.89,1.79-2.62-1.1-3.99-7.16-3.99-13.78,0-22.32-9.64-21.35-18.87.96-8.95,9.37-15.15,19.15-15.15,12.12,0,17.5,9.51,17.5,19.97,0,22.87-31.13,63.64-58.41,63.64-49.18,0-55.79-101.39-111.31-101.39Z"/>
    <path class="cls-1" d="M243.47,267.85c-2.76-47.11,42.4-110.48,94.47-110.48,25.62,0,36.18,12.12,36.79,23.69.7,13.22-9.35,26.45-35.53,26.45l-62.53.28,1.75-3.31h39.4c28.93,0,40.11-12.67,39.31-27.83-.48-9.09-6.9-15.98-19.58-15.98-39.67,0-72.9,59.79-70.56,104.15,1.23,23.42,13.02,38.02,31.48,38.02s39.72-14.88,52-43.26l2.81,1.1c-12.99,30.58-37.11,48.77-64.66,48.77s-43.85-16.53-45.17-41.6Z"/>
  </g>
</svg>