<?xml version="1.0" encoding="UTF-8"?>
<svg id="Capa_2" data-name="Capa 2" xmlns="http://www.w3.org/2000/svg" viewBox="0 0 1192.74 1419.5">
  <defs>
    <style>
      .cls-1 {
        fill: #f4e7d7;
      }
    </style>
  </defs>
  <g id="Capa_1-2" data-name="Capa 1">
    <g>
      <path class="cls-1" d="M298.84,910.36c-262.18,0-170.87,165.33-253.88,165.33-24.9,0-44.96-13.84-44.96-41.51,0-35.97,51.88-44.97,99.61-74.02,58.8-35.97,63.64-240.04,90.62-511.91C210.3,248.34,249.73,2.77,177.09,2.77V0h408.14v2.77c-41.51,0-71.25,109.99-107.22,452.41-33.9,324.44-17.98,450.34-9.68,486.31,25.6,108.61,404.68,242.81,511.21,263.56,40.12,8.3,113.45,9.68,130.74-14.53,8.99-13.14-5.53-20.06-35.97-20.06-69.18,0-112.07-48.42-107.22-94.77,4.84-44.97,47.04-76.09,96.16-76.09,60.88,0,87.85,47.73,87.85,100.3,0,114.83-156.34,319.59-293.31,319.59-246.96,0-280.17-509.14-558.95-509.14Z"/>
      <path class="cls-1" d="M533.44,769.25c-13.84-236.58,212.9-554.79,474.39-554.79,128.67,0,181.68,60.88,184.74,118.98,3.5,66.41-46.97,132.82-178.4,132.82l-313.99,1.38,8.81-16.6h197.85c145.27,0,201.41-63.64,197.4-139.74-2.4-45.66-34.66-80.24-98.3-80.24-199.23,0-366.05,300.22-354.32,522.97,6.19,117.6,65.39,190.92,158.09,190.92s199.44-74.71,261.12-217.21l14.13,5.53c-65.24,153.57-186.33,244.88-324.69,244.88s-220.2-83.01-226.83-208.91Z"/>
    </g>
  </g>
</svg>